<mxfile host="app.diagrams.net" modified="2022-10-04T14:04:14.736Z" agent="5.0 (Windows NT 10.0; Win64; x64) AppleWebKit/537.36 (KHTML, like Gecko) Chrome/105.0.0.0 Safari/537.36" etag="LnPMtzUaZXHEUyAS2Tmx" version="20.4.0" type="github">
  <diagram id="kgpKYQtTHZ0yAKxKKP6v" name="Page-1">
    <mxGraphModel dx="1278" dy="571" grid="1" gridSize="10" guides="1" tooltips="1" connect="1" arrows="1" fold="1" page="1" pageScale="1" pageWidth="850" pageHeight="1100" math="0" shadow="0">
      <root>
        <mxCell id="0" />
        <mxCell id="1" parent="0" />
        <mxCell id="3nuBFxr9cyL0pnOWT2aG-1" value="User" style="shape=umlLifeline;perimeter=lifelinePerimeter;container=1;collapsible=0;recursiveResize=0;rounded=0;shadow=0;strokeWidth=1;" parent="1" vertex="1">
          <mxGeometry x="160" y="80" width="106" height="410" as="geometry" />
        </mxCell>
        <mxCell id="3nuBFxr9cyL0pnOWT2aG-2" value="" style="points=[];perimeter=orthogonalPerimeter;rounded=0;shadow=0;strokeWidth=1;" parent="3nuBFxr9cyL0pnOWT2aG-1" vertex="1">
          <mxGeometry x="48" y="70" width="10" height="270" as="geometry" />
        </mxCell>
        <mxCell id="8O48EmPY5D3YkZjpB1mJ-7" value="" style="swimlane;startSize=0;" vertex="1" parent="3nuBFxr9cyL0pnOWT2aG-1">
          <mxGeometry x="-54" y="190" width="600" height="182" as="geometry">
            <mxRectangle x="50" y="262" width="50" height="40" as="alternateBounds" />
          </mxGeometry>
        </mxCell>
        <mxCell id="8O48EmPY5D3YkZjpB1mJ-10" value="&lt;i&gt;&lt;font style=&quot;font-size: 10px;&quot;&gt;Alternative&lt;/font&gt;&lt;/i&gt;" style="rounded=0;whiteSpace=wrap;html=1;" vertex="1" parent="8O48EmPY5D3YkZjpB1mJ-7">
          <mxGeometry width="60" height="30" as="geometry" />
        </mxCell>
        <mxCell id="8O48EmPY5D3YkZjpB1mJ-12" value="" style="endArrow=none;html=1;rounded=0;dashed=1;dashPattern=1 2;fontSize=10;exitX=0;exitY=0.321;exitDx=0;exitDy=0;exitPerimeter=0;entryX=0.999;entryY=0.321;entryDx=0;entryDy=0;entryPerimeter=0;" edge="1" parent="3nuBFxr9cyL0pnOWT2aG-1">
          <mxGeometry relative="1" as="geometry">
            <mxPoint x="-54" y="255.42200000000003" as="sourcePoint" />
            <mxPoint x="545.4000000000001" y="255.42200000000003" as="targetPoint" />
          </mxGeometry>
        </mxCell>
        <mxCell id="3nuBFxr9cyL0pnOWT2aG-5" value="Login" style="shape=umlLifeline;perimeter=lifelinePerimeter;container=1;collapsible=0;recursiveResize=0;rounded=0;shadow=0;strokeWidth=1;" parent="1" vertex="1">
          <mxGeometry x="373" y="80" width="100" height="410" as="geometry" />
        </mxCell>
        <mxCell id="3nuBFxr9cyL0pnOWT2aG-6" value="" style="points=[];perimeter=orthogonalPerimeter;rounded=0;shadow=0;strokeWidth=1;" parent="3nuBFxr9cyL0pnOWT2aG-5" vertex="1">
          <mxGeometry x="45" y="80" width="10" height="260" as="geometry" />
        </mxCell>
        <mxCell id="8O48EmPY5D3YkZjpB1mJ-15" value="Username or Password&lt;br&gt;is invalid" style="html=1;verticalAlign=bottom;endArrow=open;dashed=1;endSize=8;rounded=0;fontSize=10;" edge="1" parent="3nuBFxr9cyL0pnOWT2aG-5">
          <mxGeometry relative="1" as="geometry">
            <mxPoint x="247.5" y="288" as="sourcePoint" />
            <mxPoint x="57" y="288" as="targetPoint" />
          </mxGeometry>
        </mxCell>
        <mxCell id="3nuBFxr9cyL0pnOWT2aG-8" value="UserName &amp;&amp; Password Input" style="verticalAlign=bottom;endArrow=block;entryX=0;entryY=0;shadow=0;strokeWidth=1;" parent="1" edge="1">
          <mxGeometry relative="1" as="geometry">
            <mxPoint x="220" y="213" as="sourcePoint" />
            <mxPoint x="418" y="213.0000000000001" as="targetPoint" />
          </mxGeometry>
        </mxCell>
        <mxCell id="8O48EmPY5D3YkZjpB1mJ-1" value="User Account&#xa; Database" style="shape=umlLifeline;perimeter=lifelinePerimeter;container=1;collapsible=0;recursiveResize=0;rounded=0;shadow=0;strokeWidth=1;" vertex="1" parent="1">
          <mxGeometry x="571" y="80" width="100" height="410" as="geometry" />
        </mxCell>
        <mxCell id="8O48EmPY5D3YkZjpB1mJ-2" value="" style="points=[];perimeter=orthogonalPerimeter;rounded=0;shadow=0;strokeWidth=1;" vertex="1" parent="8O48EmPY5D3YkZjpB1mJ-1">
          <mxGeometry x="45" y="80" width="10" height="260" as="geometry" />
        </mxCell>
        <mxCell id="8O48EmPY5D3YkZjpB1mJ-5" value="System Login Page" style="verticalAlign=bottom;endArrow=block;shadow=0;strokeWidth=1;exitX=0.02;exitY=0.249;exitDx=0;exitDy=0;exitPerimeter=0;" edge="1" parent="1">
          <mxGeometry relative="1" as="geometry">
            <mxPoint x="418.20000000000005" y="172.84000000000003" as="sourcePoint" />
            <mxPoint x="220" y="173" as="targetPoint" />
          </mxGeometry>
        </mxCell>
        <mxCell id="8O48EmPY5D3YkZjpB1mJ-6" value="Validation UserName and Password" style="verticalAlign=bottom;endArrow=block;shadow=0;strokeWidth=1;" edge="1" parent="1" target="8O48EmPY5D3YkZjpB1mJ-1">
          <mxGeometry relative="1" as="geometry">
            <mxPoint x="429" y="243" as="sourcePoint" />
            <mxPoint x="599.8" y="243.24" as="targetPoint" />
          </mxGeometry>
        </mxCell>
        <mxCell id="8O48EmPY5D3YkZjpB1mJ-8" value="UserName And Password &#xa;are valid, processed" style="verticalAlign=bottom;endArrow=block;shadow=0;strokeWidth=1;" edge="1" parent="1">
          <mxGeometry relative="1" as="geometry">
            <mxPoint x="616" y="309.28" as="sourcePoint" />
            <mxPoint x="220" y="309" as="targetPoint" />
          </mxGeometry>
        </mxCell>
        <mxCell id="8O48EmPY5D3YkZjpB1mJ-16" value="Please  Re-enter &#xa;Username And Password" style="verticalAlign=bottom;endArrow=block;shadow=0;strokeWidth=1;exitX=0;exitY=0.928;exitDx=0;exitDy=0;exitPerimeter=0;entryX=0.92;entryY=0.934;entryDx=0;entryDy=0;entryPerimeter=0;" edge="1" parent="1" source="3nuBFxr9cyL0pnOWT2aG-6" target="3nuBFxr9cyL0pnOWT2aG-2">
          <mxGeometry relative="1" as="geometry">
            <mxPoint x="452" y="402" as="sourcePoint" />
            <mxPoint x="232" y="402" as="targetPoint" />
          </mxGeometry>
        </mxCell>
      </root>
    </mxGraphModel>
  </diagram>
</mxfile>
